<svg version="1.1" id="Layer_1" xmlns="http://www.w3.org/2000/svg" xmlns:xlink="http://www.w3.org/1999/xlink" x="0px" y="0px"
	 width="100%" viewBox="0 0 1920 1080" enable-background="new 0 0 1920 1080" xml:space="preserve">
<path fill="#FFFFFF" opacity="1.000000" stroke="none" 
	d="
M1398.000000,1081.000000 
	C932.000061,1081.000000 466.500153,1081.000000 1.000187,1081.000000 
	C1.000125,721.000122 1.000125,361.000305 1.000062,1.000332 
	C640.999756,1.000221 1280.999512,1.000221 1920.999512,1.000111 
	C1920.999634,360.999664 1920.999634,720.999329 1920.999756,1080.999512 
	C1746.833374,1081.000000 1572.666626,1081.000000 1398.000000,1081.000000 
M395.984406,576.500000 
	C395.984558,653.661804 395.971588,730.823547 396.038239,807.985291 
	C396.040619,810.752625 396.299377,813.740417 397.345673,816.246887 
	C401.280121,825.671814 409.067444,828.534546 418.726135,828.533264 
	C780.205261,828.484009 1141.684448,828.491577 1503.163574,828.491516 
	C1503.996826,828.491516 1504.830566,828.505859 1505.663452,828.487183 
	C1518.810425,828.192383 1526.720215,820.223877 1526.721680,807.037964 
	C1526.740967,629.714844 1526.696899,452.391724 1526.821167,275.068726 
	C1526.829590,263.190033 1517.771484,253.730087 1505.701050,253.738037 
	C1142.722046,253.977325 779.743042,253.931335 416.763947,253.937408 
	C403.169556,253.937637 395.985718,261.255341 395.985504,275.017334 
	C395.983765,375.178223 395.984467,475.339111 395.984406,576.500000 
z"/>
<path fill="#5BB0FF" opacity="1.000000" stroke="none" 
	d="
M395.984406,576.000000 
	C395.984467,475.339111 395.983765,375.178223 395.985504,275.017334 
	C395.985718,261.255341 403.169556,253.937637 416.763947,253.937408 
	C779.743042,253.931335 1142.722046,253.977325 1505.701050,253.738037 
	C1517.771484,253.730087 1526.829590,263.190033 1526.821167,275.068726 
	C1526.696899,452.391724 1526.740967,629.714844 1526.721680,807.037964 
	C1526.720215,820.223877 1518.810425,828.192383 1505.663452,828.487183 
	C1504.830566,828.505859 1503.996826,828.491516 1503.163574,828.491516 
	C1141.684448,828.491577 780.205261,828.484009 418.726135,828.533264 
	C409.067444,828.534546 401.280121,825.671814 397.345673,816.246887 
	C396.299377,813.740417 396.040619,810.752625 396.038239,807.985291 
	C395.971588,730.823547 395.984558,653.661804 395.984406,576.000000 
M969.500000,813.273560 
	C1146.987915,813.273560 1324.475952,813.273865 1501.963867,813.272644 
	C1510.968140,813.272583 1511.467773,812.795410 1511.467773,804.097900 
	C1511.469849,628.609436 1511.469971,453.121002 1511.466797,277.632568 
	C1511.466553,269.383789 1510.818481,268.728241 1502.739014,268.728180 
	C1141.762817,268.726410 780.786499,268.726440 419.810242,268.728210 
	C411.202179,268.728241 410.879913,269.060913 410.879852,277.856262 
	C410.878540,453.344727 410.878784,628.833191 410.880157,804.321655 
	C410.880188,805.654724 410.406250,807.303833 411.014832,808.253540 
	C412.199890,810.102905 413.735962,812.085022 415.619263,813.020447 
	C417.234833,813.822876 419.537323,813.269653 421.536011,813.269714 
	C603.857361,813.274048 786.178650,813.273865 969.500000,813.273560 
z"/>
<path fill="#FFFFFF" opacity="1.000000" stroke="none" 
	d="
M969.000000,813.273804 
	C786.178650,813.273865 603.857361,813.274048 421.536011,813.269714 
	C419.537323,813.269653 417.234833,813.822876 415.619263,813.020447 
	C413.735962,812.085022 412.199890,810.102905 411.014832,808.253540 
	C410.406250,807.303833 410.880188,805.654724 410.880157,804.321655 
	C410.878784,628.833191 410.878540,453.344727 410.879852,277.856262 
	C410.879913,269.060913 411.202179,268.728241 419.810242,268.728210 
	C780.786499,268.726440 1141.762817,268.726410 1502.739014,268.728180 
	C1510.818481,268.728241 1511.466553,269.383789 1511.466797,277.632568 
	C1511.469971,453.121002 1511.469849,628.609436 1511.467773,804.097900 
	C1511.467773,812.795410 1510.968140,813.272583 1501.963867,813.272644 
	C1324.475952,813.273865 1146.987915,813.273560 969.000000,813.273804 
M917.649963,528.105164 
	C960.148315,540.318726 998.885986,532.230652 1035.108643,505.575623 
	C1036.375122,507.268829 1037.400757,509.048004 1038.801880,510.452545 
	C1066.566162,538.286377 1094.371460,566.079224 1122.179565,593.869080 
	C1123.590576,595.279114 1124.984375,596.751404 1126.588989,597.914917 
	C1133.288696,602.772400 1142.970581,600.449646 1146.764282,593.166077 
	C1150.132690,586.699158 1149.169556,581.578430 1143.256592,575.659119 
	C1114.883667,547.256226 1086.479492,518.884338 1058.094849,490.493073 
	C1056.731689,489.129669 1055.447632,487.687256 1054.073853,486.225494 
	C1055.282593,484.543091 1056.253418,483.205353 1057.210327,481.857697 
	C1078.308594,452.143005 1086.206543,419.289307 1079.394775,383.446594 
	C1065.223511,308.879089 989.709351,263.723816 917.217896,286.109741 
	C860.645081,303.579834 823.804504,358.295135 828.895020,417.547607 
	C829.533325,424.977051 831.049500,432.331116 831.516785,440.058197 
	C825.946533,444.619598 820.376343,449.181000 814.689941,453.837524 
	C822.520996,463.377380 829.961487,472.441376 837.701477,481.870270 
	C841.049377,479.081085 844.084045,476.552795 847.678406,474.380249 
	C855.767761,483.755737 863.760559,493.217346 872.001282,502.457794 
	C874.705994,505.490570 878.053772,507.949890 880.471069,511.034027 
	C876.658142,514.116028 872.845215,517.197998 868.993652,520.311279 
	C876.786926,529.899536 884.274841,539.112183 892.025513,548.648071 
	C900.568787,541.579468 908.712952,534.841003 917.649963,528.105164 
M857.387268,626.173645 
	C851.240967,613.013550 840.942383,604.915344 826.521606,604.056702 
	C809.755188,603.058533 792.901367,603.527161 776.085266,603.386902 
	C775.818176,603.384644 775.548035,603.737183 775.278931,603.929016 
	C775.278931,633.173950 775.278931,662.418884 775.278931,691.822876 
	C792.049194,691.822876 808.538574,692.360413 824.973328,691.644104 
	C837.001587,691.119812 847.238281,685.606812 853.842529,675.194946 
	C863.552795,659.886414 864.028625,643.573792 857.387268,626.173645 
M1150.982300,665.500000 
	C1150.982300,644.907410 1150.982300,624.314758 1150.982300,603.586609 
	C1142.891235,603.586609 1135.354492,603.586609 1127.216797,603.586609 
	C1127.216797,615.147156 1127.216797,626.362183 1127.216797,637.606873 
	C1114.698364,637.606873 1102.789917,637.606873 1090.302490,637.606873 
	C1090.302490,626.045532 1090.302490,614.794067 1090.302490,603.511108 
	C1082.290283,603.511108 1074.865234,603.511108 1067.355835,603.511108 
	C1067.355835,633.133850 1067.355835,662.473633 1067.355835,691.741699 
	C1075.170654,691.741699 1082.599854,691.741699 1090.483765,691.741699 
	C1090.483765,679.887085 1090.483765,668.284729 1090.483765,656.446106 
	C1102.980103,656.446106 1115.013428,656.446106 1127.504395,656.446106 
	C1127.504395,668.403931 1127.504395,680.005310 1127.504395,691.694702 
	C1135.526733,691.694702 1143.085571,691.694702 1150.982300,691.694702 
	C1150.982300,683.092285 1150.982300,674.796143 1150.982300,665.500000 
M1013.550110,694.135315 
	C1021.102295,693.187622 1028.919312,693.164185 1036.149414,691.092590 
	C1049.623535,687.231812 1055.896240,676.783875 1054.817627,662.418579 
	C1053.842651,649.430237 1046.236206,641.278992 1032.375732,638.983887 
	C1024.504150,637.680420 1016.522827,637.050659 1008.606506,636.000244 
	C1004.042297,635.394714 1000.594666,633.141052 1000.326477,628.180786 
	C1000.063965,623.327209 1003.079895,620.550415 1007.464539,619.159973 
	C1018.241516,615.742249 1026.427002,619.370667 1031.399048,629.643005 
	C1038.879517,629.643005 1046.311157,629.643005 1054.024780,629.643005 
	C1052.853516,617.650574 1047.128906,609.178040 1036.219116,604.931152 
	C1021.860107,599.341736 1007.239380,599.461365 992.839417,604.976013 
	C985.683899,607.716309 980.488953,612.731750 977.959656,620.160217 
	C972.179871,637.135925 981.890564,652.345032 1000.243958,654.952332 
	C1007.981384,656.051575 1015.777893,656.755920 1023.493408,657.980469 
	C1028.082153,658.708801 1030.872803,661.573425 1031.064697,666.503235 
	C1031.263184,671.596802 1028.660278,674.549500 1023.990112,676.058105 
	C1011.641418,680.047302 1002.303955,675.659241 997.091003,663.425415 
	C989.799072,663.425415 982.540710,663.425415 975.020935,663.425415 
	C975.932922,675.917480 981.349182,685.308594 992.761169,689.859619 
	C998.947144,692.326416 1005.943909,692.760071 1013.550110,694.135315 
M938.168335,678.000061 
	C939.470642,681.769348 940.638916,685.593933 942.156616,689.274414 
	C942.615784,690.387756 944.018433,691.845642 945.030518,691.878906 
	C951.980042,692.107117 958.940552,691.998779 966.060425,691.998779 
	C965.965454,690.906738 966.038269,690.212830 965.833862,689.613403 
	C956.338806,661.776550 946.867737,633.931030 937.158142,606.168945 
	C936.683167,604.810852 934.118591,603.404968 932.488586,603.358154 
	C923.171204,603.090576 913.839600,603.353638 904.518616,603.158325 
	C901.368774,603.092407 899.873718,603.983093 898.857056,607.132874 
	C894.723328,619.940063 890.257446,632.640076 885.906006,645.376892 
	C880.649597,660.762512 875.385071,676.145386 869.961670,692.004150 
	C873.464417,692.004150 876.438049,692.053955 879.409424,691.992737 
	C884.046509,691.897217 889.737000,693.306824 893.008301,691.123291 
	C896.013611,689.117249 896.564148,683.253967 897.902710,678.997742 
	C898.716003,676.412048 899.889526,675.229797 902.799500,675.277039 
	C913.120972,675.444641 923.447754,675.273865 933.769775,675.423340 
	C935.164978,675.443481 936.544373,676.558533 938.168335,678.000061 
M1235.473999,785.013306 
	C1236.917603,784.924316 1238.361206,784.835327 1239.650757,784.755859 
	C1239.650757,768.277466 1239.859497,752.149109 1239.568604,736.029724 
	C1239.407104,727.075012 1234.447876,721.031433 1226.000000,718.238770 
	C1215.675903,714.825806 1205.298584,715.079773 1195.258179,719.345581 
	C1186.785278,722.945496 1182.087524,731.039368 1183.379883,738.851868 
	C1187.506104,738.851868 1191.618408,738.851868 1194.808350,738.851868 
	C1196.851929,735.485352 1198.079590,732.237183 1200.325562,730.020935 
	C1204.832031,725.574402 1218.538574,724.772888 1223.373413,728.962097 
	C1225.495361,730.800598 1226.886475,734.637695 1226.777954,737.497864 
	C1226.703125,739.473816 1223.806885,741.960205 1221.595093,743.076111 
	C1219.021606,744.374695 1215.807739,744.376099 1212.891724,745.029419 
	C1205.774658,746.623718 1198.458130,747.666138 1191.616089,750.058044 
	C1184.250366,752.632812 1181.147705,758.920593 1181.065796,766.602051 
	C1180.985107,774.175720 1183.790771,780.290283 1190.672729,783.962158 
	C1202.416382,790.228210 1217.755859,786.202576 1225.055298,775.100037 
	C1225.516479,774.398682 1226.176025,773.827820 1227.105347,772.793274 
	C1227.313354,775.280579 1227.446411,777.100281 1227.622681,778.915833 
	C1227.810547,780.848450 1228.039795,782.777100 1228.284302,785.013428 
	C1230.568970,785.013428 1232.547363,785.013428 1235.473999,785.013306 
M728.046387,730.599304 
	C731.670349,738.476440 729.607788,742.409119 721.112122,744.046021 
	C712.791321,745.649109 704.320557,746.780396 696.226196,749.170532 
	C686.958679,751.907043 682.954163,759.040649 683.763062,768.843079 
	C684.528748,778.120972 689.840088,784.203613 699.082458,785.989746 
	C712.221802,788.528931 722.633606,784.614746 729.674927,771.604370 
	C730.014099,776.647827 730.285278,780.680664 730.558228,784.739319 
	C734.835266,784.739319 738.599243,784.739319 741.928284,784.739319 
	C741.928284,767.689880 742.179138,750.907532 741.809265,734.138855 
	C741.653381,727.069580 737.312256,721.916809 730.882812,719.228638 
	C719.761658,714.578735 708.395203,714.703064 697.399841,719.592468 
	C689.420959,723.140503 685.452209,729.735779 685.151672,738.820068 
	C689.633118,738.820068 693.876587,738.820068 698.035645,738.820068 
	C702.153442,726.244751 716.462036,722.077148 728.046387,730.599304 
M880.548889,729.988464 
	C885.013977,737.625732 882.939941,742.366333 874.393738,743.987488 
	C872.105347,744.421509 869.761536,744.601929 867.502869,745.146545 
	C860.261841,746.892273 852.798767,748.102722 845.895081,750.753601 
	C838.933533,753.426697 836.580750,759.880188 836.624634,767.063477 
	C836.668274,774.205078 839.288147,780.082520 845.727417,783.729492 
	C857.528687,790.413391 873.759033,786.168213 880.818970,774.632996 
	C881.277161,773.884338 881.775696,773.160461 882.675415,771.781250 
	C883.024902,776.732788 883.309692,780.768433 883.584717,784.664856 
	C888.017578,784.664856 891.766541,784.664856 895.025269,784.664856 
	C895.025269,768.187317 895.130310,752.054749 894.981384,735.924622 
	C894.906006,727.760437 890.712891,721.979919 883.223938,718.973694 
	C872.370178,714.616760 861.357727,714.884033 850.647095,719.434998 
	C842.444763,722.919983 838.024292,730.408447 838.569031,738.754883 
	C842.807251,738.754883 847.043518,738.754883 849.230164,738.754883 
	C852.971191,734.423401 855.072449,730.031921 858.475952,728.459900 
	C865.431824,725.247192 872.997070,725.132080 880.548889,729.988464 
M974.200378,770.592529 
	C971.063171,773.703369 971.885437,769.467285 971.673889,768.919800 
	C965.681274,753.411621 959.891235,737.825317 953.938965,722.301208 
	C953.357300,720.784241 952.072815,718.580872 950.889099,718.426636 
	C947.071411,717.929382 943.148315,718.241394 938.778748,718.241394 
	C939.635376,720.618469 940.169861,722.165527 940.747986,723.696167 
	C947.797485,742.360718 954.769348,761.055664 962.005615,779.647644 
	C962.999573,782.201172 965.315857,784.240051 967.683716,787.404358 
	C966.689758,789.999451 965.378784,794.138245 963.482422,797.988647 
	C962.811584,799.350586 960.760376,800.758423 959.257324,800.854065 
	C953.860474,801.197510 948.428528,800.988770 943.017456,800.988770 
	C943.017456,804.912964 943.017456,808.180115 943.017456,812.063477 
	C949.139526,811.734802 954.945007,811.613464 960.709290,811.061646 
	C966.774231,810.480957 971.255310,807.195251 974.129700,801.850708 
	C975.544250,799.220520 976.891663,796.527832 977.969055,793.747009 
	C987.218628,769.872192 996.405457,745.973145 1005.581970,722.070068 
	C1006.015686,720.940308 1006.175781,719.705505 1006.539062,718.207703 
	C1003.056152,718.207703 1000.027649,717.926575 997.092285,718.327576 
	C995.649597,718.524658 993.625305,719.691101 993.145630,720.919312 
	C986.794983,737.178406 980.672546,753.526611 974.200378,770.592529 
M759.525452,752.499939 
	C759.525452,763.252869 759.525452,774.005737 759.525452,784.727051 
	C764.366394,784.727051 768.463989,784.727051 773.002441,784.727051 
	C773.002441,774.327271 772.669250,764.185608 773.137024,754.081055 
	C773.387024,748.680359 774.353394,743.104614 776.177002,738.032227 
	C779.166870,729.715759 787.520691,726.005127 797.133362,727.737122 
	C804.244385,729.018372 807.642456,733.829468 807.918945,743.384033 
	C808.082825,749.044678 807.985535,754.713074 807.990967,760.377991 
	C807.998657,768.480652 807.992920,776.583313 807.992920,784.707886 
	C812.685608,784.707886 816.763977,784.707886 820.915771,784.707886 
	C820.915771,768.450012 821.268738,752.477478 820.758545,736.532471 
	C820.523315,729.183105 817.397644,722.625427 810.220032,718.965393 
	C797.559631,712.509460 782.288879,716.860596 775.000671,729.009521 
	C774.547546,729.764893 774.081055,730.512329 772.822510,732.566223 
	C772.822510,726.908264 772.822510,722.816162 772.822510,718.478333 
	C768.357727,718.478333 764.273926,718.478333 759.526001,718.478333 
	C759.526001,729.599792 759.526001,740.549866 759.525452,752.499939 
M1107.557007,730.085815 
	C1106.893555,731.237732 1106.165649,732.357666 1105.576538,733.546326 
	C1098.362061,748.104187 1101.097290,767.862366 1111.740967,778.221741 
	C1121.832275,788.043579 1139.911621,790.119873 1153.723633,783.043152 
	C1162.946777,778.317566 1168.934448,768.078369 1167.539062,759.152832 
	C1166.421387,759.152832 1165.249023,759.296204 1164.123047,759.128357 
	C1158.803467,758.335632 1155.586548,759.451233 1153.850220,765.613708 
	C1151.667725,773.359802 1144.394531,776.637268 1134.444702,776.244263 
	C1125.144287,775.876831 1118.863770,772.174988 1117.108643,764.121521 
	C1115.688843,757.607056 1115.354370,750.597595 1116.001465,743.950012 
	C1117.044800,733.230408 1123.818481,727.510010 1134.175903,727.022095 
	C1146.022217,726.464050 1151.898193,730.647339 1155.013062,741.830444 
	C1155.136353,742.273560 1155.456055,742.661987 1155.573730,742.875366 
	C1159.680908,742.875366 1163.576172,742.875366 1167.641846,742.875366 
	C1167.008545,733.659973 1163.587646,726.442322 1156.048096,721.511292 
	C1143.771362,713.481873 1118.941162,713.099548 1107.557007,730.085815 
M1044.526123,718.202271 
	C1042.571655,718.202271 1040.617310,718.202271 1038.058472,718.202271 
	C1038.058472,712.839905 1038.058472,708.117615 1038.058472,703.574341 
	C1033.521362,702.438660 1030.654175,703.167847 1029.758423,707.752136 
	C1028.368408,714.866638 1024.021973,718.966309 1016.813110,720.056946 
	C1011.443787,720.869324 1011.622864,724.377808 1012.722351,728.905701 
	C1016.811218,728.905701 1020.716858,728.905701 1024.955688,728.905701 
	C1024.955688,731.248291 1024.952393,733.053345 1024.956177,734.858337 
	C1024.979858,746.184692 1024.820679,757.515381 1025.086182,768.836060 
	C1025.311768,778.458008 1029.729858,783.618347 1039.047852,784.605225 
	C1045.259521,785.263062 1051.597046,784.730103 1057.842407,784.730103 
	C1057.842407,781.171753 1057.842407,777.803101 1057.842407,773.968750 
	C1051.138428,773.968750 1044.867432,773.968750 1038.609253,773.968750 
	C1038.609253,758.746155 1038.609253,744.004211 1038.609253,728.711792 
	C1045.674316,728.711792 1052.423950,728.711792 1059.331299,728.711792 
	C1059.331299,724.946777 1059.331299,721.746338 1059.331299,718.202454 
	C1054.469482,718.202454 1049.993286,718.202454 1044.526123,718.202271 
M925.963135,709.501221 
	C925.963135,703.729309 925.963135,697.957397 925.963135,692.073975 
	C921.312561,692.073975 917.246033,692.073975 912.932556,692.073975 
	C912.932556,723.062012 912.932556,753.751526 912.932556,784.649536 
	C917.306580,784.649536 921.501282,784.649536 925.963135,784.649536 
	C925.963135,759.698975 925.963135,735.099792 925.963135,709.501221 
M807.751587,519.454529 
	C805.653687,529.731140 811.448853,539.062500 821.453918,541.517944 
	C830.781860,543.807251 840.760071,537.624756 843.280945,527.994019 
	C845.668518,518.872559 839.893494,508.880585 830.618896,506.086182 
	C821.088196,503.214569 811.289673,508.646851 807.751587,519.454529 
M808.938293,475.411255 
	C807.943848,474.815002 806.997437,474.111816 805.947205,473.639587 
	C798.316467,470.208160 789.916992,472.159668 784.258301,478.629303 
	C779.270813,484.331482 778.636902,493.103119 782.749329,499.507294 
	C787.630676,507.108826 795.111694,510.402161 803.230469,507.869202 
	C817.226929,503.502441 822.036255,486.473846 808.938293,475.411255 
M834.944275,552.610962 
	C832.798096,560.729248 836.070923,567.033386 842.161011,571.854126 
	C847.720337,576.254761 854.303040,576.429199 860.505981,573.382507 
	C867.273010,570.058838 870.908752,564.272522 870.963318,556.576233 
	C871.017883,548.885010 864.398499,540.671509 857.059509,539.139954 
	C847.372559,537.118530 839.057068,541.915283 834.944275,552.610962 
M1086.099365,733.503906 
	C1086.099365,728.570740 1086.099365,723.637512 1086.099365,718.518494 
	C1081.462280,718.518494 1077.406128,718.518494 1073.272949,718.518494 
	C1073.272949,740.801270 1073.272949,762.782898 1073.272949,784.656860 
	C1077.716431,784.656860 1081.782104,784.656860 1086.099365,784.656860 
	C1086.099365,767.709473 1086.099365,751.105835 1086.099365,733.503906 
M1087.965698,700.623962 
	C1087.846680,699.218750 1087.727661,697.813538 1087.621826,696.562561 
	C1081.837524,696.562561 1076.598022,696.562561 1071.380371,696.562561 
	C1071.380371,700.628479 1071.380371,704.341675 1071.380371,708.144409 
	C1076.994019,708.144409 1082.259766,708.144409 1087.965698,708.144409 
	C1087.965698,705.798584 1087.965698,703.673462 1087.965698,700.623962 
z"/>
<path fill="#67765D" opacity="1.000000" stroke="none" 
	d="
M832.158936,439.720093 
	C831.049500,432.331116 829.533325,424.977051 828.895020,417.547607 
	C823.804504,358.295135 860.645081,303.579834 917.217896,286.109741 
	C989.709351,263.723816 1065.223511,308.879089 1079.394775,383.446594 
	C1086.206543,419.289307 1078.308594,452.143005 1057.210327,481.857697 
	C1056.253418,483.205353 1055.282593,484.543091 1054.073853,486.225494 
	C1055.447632,487.687256 1056.731689,489.129669 1058.094849,490.493073 
	C1086.479492,518.884338 1114.883667,547.256226 1143.256592,575.659119 
	C1149.169556,581.578430 1150.132690,586.699158 1146.764282,593.166077 
	C1142.970581,600.449646 1133.288696,602.772400 1126.588989,597.914917 
	C1124.984375,596.751404 1123.590576,595.279114 1122.179565,593.869080 
	C1094.371460,566.079224 1066.566162,538.286377 1038.801880,510.452545 
	C1037.400757,509.048004 1036.375122,507.268829 1035.108643,505.575623 
	C998.885986,532.230652 960.148315,540.318726 916.902100,528.009277 
	C904.471985,522.166077 892.789734,516.418762 881.107422,510.671478 
	C878.053772,507.949890 874.705994,505.490570 872.001282,502.457794 
	C863.760559,493.217346 855.767761,483.755737 847.316650,473.854187 
	C842.022888,462.125427 837.090942,450.922760 832.158936,439.720093 
M874.106445,463.858063 
	C880.853455,473.513062 888.953125,481.786682 899.276550,488.759094 
	C902.101135,491.534576 904.843872,491.153015 907.731384,488.742462 
	C915.738770,482.057770 923.817261,475.458252 931.854065,468.808685 
	C939.770447,462.258698 947.631592,455.641327 955.587891,449.140350 
	C963.767761,442.456818 972.018799,435.860046 980.265747,429.259186 
	C987.901978,423.147095 995.574158,417.079742 1003.352722,410.895477 
	C1011.175842,420.568146 1018.681030,429.847687 1026.311401,439.282043 
	C999.359314,461.223572 972.785706,482.857056 945.264648,505.261780 
	C948.136108,505.542877 949.872986,505.847717 951.612427,505.863098 
	C980.872070,506.121826 1005.898987,496.227448 1026.385498,475.041260 
	C1060.569946,439.688934 1062.640869,381.706421 1030.909302,344.113098 
	C992.945068,299.135803 926.580200,295.818481 884.889038,337.521545 
	C862.557434,359.859650 853.050110,387.326782 857.007874,419.873535 
	C858.479919,432.764862 862.770325,444.709351 869.188293,456.634674 
	C870.768616,458.829041 872.348877,461.023376 874.106445,463.858063 
z"/>
<path fill="#68696A" opacity="1.000000" stroke="none" 
	d="
M857.571106,626.507446 
	C864.028625,643.573792 863.552795,659.886414 853.842529,675.194946 
	C847.238281,685.606812 837.001587,691.119812 824.973328,691.644104 
	C808.538574,692.360413 792.049194,691.822876 775.278931,691.822876 
	C775.278931,662.418884 775.278931,633.173950 775.279175,603.926636 
	C775.548035,603.737183 775.818176,603.384644 776.085266,603.386902 
	C792.901367,603.527161 809.755188,603.058533 826.521606,604.056702 
	C840.942383,604.915344 851.240967,613.013550 857.571106,626.507446 
M836.113892,657.371338 
	C836.367737,651.919067 837.248779,646.407898 836.743896,641.026794 
	C835.718994,630.103455 830.412048,623.835815 820.475220,622.554199 
	C813.352234,621.635437 806.015320,622.375549 798.685059,622.375549 
	C798.685059,639.383301 798.685059,656.221008 798.685059,673.196838 
	C804.999634,673.196838 810.945862,673.321533 816.884827,673.168884 
	C826.900818,672.911560 833.407471,668.012390 836.113892,657.371338 
z"/>
<path fill="#68696B" opacity="1.000000" stroke="none" 
	d="
M1150.982300,666.000000 
	C1150.982300,674.796143 1150.982300,683.092285 1150.982300,691.694702 
	C1143.085571,691.694702 1135.526733,691.694702 1127.504395,691.694702 
	C1127.504395,680.005310 1127.504395,668.403931 1127.504395,656.446106 
	C1115.013428,656.446106 1102.980103,656.446106 1090.483765,656.446106 
	C1090.483765,668.284729 1090.483765,679.887085 1090.483765,691.741699 
	C1082.599854,691.741699 1075.170654,691.741699 1067.355835,691.741699 
	C1067.355835,662.473633 1067.355835,633.133850 1067.355835,603.511108 
	C1074.865234,603.511108 1082.290283,603.511108 1090.302490,603.511108 
	C1090.302490,614.794067 1090.302490,626.045532 1090.302490,637.606873 
	C1102.789917,637.606873 1114.698364,637.606873 1127.216797,637.606873 
	C1127.216797,626.362183 1127.216797,615.147156 1127.216797,603.586609 
	C1135.354492,603.586609 1142.891235,603.586609 1150.982300,603.586609 
	C1150.982300,624.314758 1150.982300,644.907410 1150.982300,666.000000 
z"/>
<path fill="#68696B" opacity="1.000000" stroke="none" 
	d="
M1013.062500,694.123047 
	C1005.943909,692.760071 998.947144,692.326416 992.761169,689.859619 
	C981.349182,685.308594 975.932922,675.917480 975.020935,663.425415 
	C982.540710,663.425415 989.799072,663.425415 997.091003,663.425415 
	C1002.303955,675.659241 1011.641418,680.047302 1023.990112,676.058105 
	C1028.660278,674.549500 1031.263184,671.596802 1031.064697,666.503235 
	C1030.872803,661.573425 1028.082153,658.708801 1023.493408,657.980469 
	C1015.777893,656.755920 1007.981384,656.051575 1000.243958,654.952332 
	C981.890564,652.345032 972.179871,637.135925 977.959656,620.160217 
	C980.488953,612.731750 985.683899,607.716309 992.839417,604.976013 
	C1007.239380,599.461365 1021.860107,599.341736 1036.219116,604.931152 
	C1047.128906,609.178040 1052.853516,617.650574 1054.024780,629.643005 
	C1046.311157,629.643005 1038.879517,629.643005 1031.399048,629.643005 
	C1026.427002,619.370667 1018.241516,615.742249 1007.464539,619.159973 
	C1003.079895,620.550415 1000.063965,623.327209 1000.326477,628.180786 
	C1000.594666,633.141052 1004.042297,635.394714 1008.606506,636.000244 
	C1016.522827,637.050659 1024.504150,637.680420 1032.375732,638.983887 
	C1046.236206,641.278992 1053.842651,649.430237 1054.817627,662.418579 
	C1055.896240,676.783875 1049.623535,687.231812 1036.149414,691.092590 
	C1028.919312,693.164185 1021.102295,693.187622 1013.062500,694.123047 
z"/>
<path fill="#68696B" opacity="1.000000" stroke="none" 
	d="
M938.049683,677.583374 
	C936.544373,676.558533 935.164978,675.443481 933.769775,675.423340 
	C923.447754,675.273865 913.120972,675.444641 902.799500,675.277039 
	C899.889526,675.229797 898.716003,676.412048 897.902710,678.997742 
	C896.564148,683.253967 896.013611,689.117249 893.008301,691.123291 
	C889.737000,693.306824 884.046509,691.897217 879.409424,691.992737 
	C876.438049,692.053955 873.464417,692.004150 869.961670,692.004150 
	C875.385071,676.145386 880.649597,660.762512 885.906006,645.376892 
	C890.257446,632.640076 894.723328,619.940063 898.857056,607.132874 
	C899.873718,603.983093 901.368774,603.092407 904.518616,603.158325 
	C913.839600,603.353638 923.171204,603.090576 932.488586,603.358154 
	C934.118591,603.404968 936.683167,604.810852 937.158142,606.168945 
	C946.867737,633.931030 956.338806,661.776550 965.833862,689.613403 
	C966.038269,690.212830 965.965454,690.906738 966.060425,691.998779 
	C958.940552,691.998779 951.980042,692.107117 945.030518,691.878906 
	C944.018433,691.845642 942.615784,690.387756 942.156616,689.274414 
	C940.638916,685.593933 939.470642,681.769348 938.049683,677.583374 
M916.535156,657.715515 
	C921.261658,657.715515 925.988159,657.715515 931.371521,657.715515 
	C926.937805,644.847412 922.801636,632.842896 918.224426,619.558411 
	C913.628540,633.008667 909.496399,645.101624 905.186401,657.715210 
	C909.272766,657.715210 912.414978,657.715210 916.535156,657.715515 
z"/>
<path fill="#6A6B6D" opacity="1.000000" stroke="none" 
	d="
M1234.999756,785.013367 
	C1232.547363,785.013428 1230.568970,785.013428 1228.284302,785.013428 
	C1228.039795,782.777100 1227.810547,780.848450 1227.622681,778.915833 
	C1227.446411,777.100281 1227.313354,775.280579 1227.105347,772.793274 
	C1226.176025,773.827820 1225.516479,774.398682 1225.055298,775.100037 
	C1217.755859,786.202576 1202.416382,790.228210 1190.672729,783.962158 
	C1183.790771,780.290283 1180.985107,774.175720 1181.065796,766.602051 
	C1181.147705,758.920593 1184.250366,752.632812 1191.616089,750.058044 
	C1198.458130,747.666138 1205.774658,746.623718 1212.891724,745.029419 
	C1215.807739,744.376099 1219.021606,744.374695 1221.595093,743.076111 
	C1223.806885,741.960205 1226.703125,739.473816 1226.777954,737.497864 
	C1226.886475,734.637695 1225.495361,730.800598 1223.373413,728.962097 
	C1218.538574,724.772888 1204.832031,725.574402 1200.325562,730.020935 
	C1198.079590,732.237183 1196.851929,735.485352 1194.808350,738.851868 
	C1191.618408,738.851868 1187.506104,738.851868 1183.379883,738.851868 
	C1182.087524,731.039368 1186.785278,722.945496 1195.258179,719.345581 
	C1205.298584,715.079773 1215.675903,714.825806 1226.000000,718.238770 
	C1234.447876,721.031433 1239.407104,727.075012 1239.568604,736.029724 
	C1239.859497,752.149109 1239.650757,768.277466 1239.650757,784.755859 
	C1238.361206,784.835327 1236.917603,784.924316 1234.999756,785.013367 
M1227.158691,750.364685 
	C1226.688110,750.133789 1226.130127,749.607239 1225.760254,749.716736 
	C1220.689697,751.217590 1215.639893,752.790405 1210.595581,754.378540 
	C1206.814697,755.568909 1202.887817,756.458923 1199.317505,758.112366 
	C1194.913086,760.151917 1194.117188,764.241394 1194.791260,768.704224 
	C1195.424194,772.894165 1198.230347,775.034973 1202.050659,775.935364 
	C1211.558472,778.176331 1221.333862,773.432007 1224.830444,764.269836 
	C1226.384033,760.198669 1226.463623,755.565002 1227.158691,750.364685 
z"/>
<path fill="#696A6C" opacity="1.000000" stroke="none" 
	d="
M727.798340,730.294434 
	C716.462036,722.077148 702.153442,726.244751 698.035645,738.820068 
	C693.876587,738.820068 689.633118,738.820068 685.151672,738.820068 
	C685.452209,729.735779 689.420959,723.140503 697.399841,719.592468 
	C708.395203,714.703064 719.761658,714.578735 730.882812,719.228638 
	C737.312256,721.916809 741.653381,727.069580 741.809265,734.138855 
	C742.179138,750.907532 741.928284,767.689880 741.928284,784.739319 
	C738.599243,784.739319 734.835266,784.739319 730.558228,784.739319 
	C730.285278,780.680664 730.014099,776.647827 729.674927,771.604370 
	C722.633606,784.614746 712.221802,788.528931 699.082458,785.989746 
	C689.840088,784.203613 684.528748,778.120972 683.763062,768.843079 
	C682.954163,759.040649 686.958679,751.907043 696.226196,749.170532 
	C704.320557,746.780396 712.791321,745.649109 721.112122,744.046021 
	C729.607788,742.409119 731.670349,738.476440 727.798340,730.294434 
M729.756836,755.202271 
	C729.756836,753.282288 729.756836,751.362244 729.756836,749.689270 
	C724.297729,751.228699 719.073853,752.704163 713.848572,754.174622 
	C710.500671,755.116821 707.049683,755.792297 703.824524,757.048462 
	C698.482727,759.129089 696.225098,763.222534 697.083557,768.396545 
	C697.856323,773.054138 701.557739,775.944824 707.157227,776.263855 
	C719.549744,776.969727 726.892761,770.375793 729.756836,755.202271 
z"/>
<path fill="#696A6C" opacity="1.000000" stroke="none" 
	d="
M880.266846,729.711182 
	C872.997070,725.132080 865.431824,725.247192 858.475952,728.459900 
	C855.072449,730.031921 852.971191,734.423401 849.230164,738.754883 
	C847.043518,738.754883 842.807251,738.754883 838.569031,738.754883 
	C838.024292,730.408447 842.444763,722.919983 850.647095,719.434998 
	C861.357727,714.884033 872.370178,714.616760 883.223938,718.973694 
	C890.712891,721.979919 894.906006,727.760437 894.981384,735.924622 
	C895.130310,752.054749 895.025269,768.187317 895.025269,784.664856 
	C891.766541,784.664856 888.017578,784.664856 883.584717,784.664856 
	C883.309692,780.768433 883.024902,776.732788 882.675415,771.781250 
	C881.775696,773.160461 881.277161,773.884338 880.818970,774.632996 
	C873.759033,786.168213 857.528687,790.413391 845.727417,783.729492 
	C839.288147,780.082520 836.668274,774.205078 836.624634,767.063477 
	C836.580750,759.880188 838.933533,753.426697 845.895081,750.753601 
	C852.798767,748.102722 860.261841,746.892273 867.502869,745.146545 
	C869.761536,744.601929 872.105347,744.421509 874.393738,743.987488 
	C882.939941,742.366333 885.013977,737.625732 880.266846,729.711182 
M851.010254,771.149963 
	C853.086792,774.945251 856.540710,776.151917 860.590820,776.295898 
	C875.166443,776.813843 884.999268,764.673828 882.426697,749.949890 
	C874.809570,751.968018 867.128845,753.908997 859.503784,756.048828 
	C851.402344,758.322388 848.892822,762.547424 851.010254,771.149963 
z"/>
<path fill="#696A6C" opacity="1.000000" stroke="none" 
	d="
M974.346741,770.222534 
	C980.672546,753.526611 986.794983,737.178406 993.145630,720.919312 
	C993.625305,719.691101 995.649597,718.524658 997.092285,718.327576 
	C1000.027649,717.926575 1003.056152,718.207703 1006.539062,718.207703 
	C1006.175781,719.705505 1006.015686,720.940308 1005.581970,722.070068 
	C996.405457,745.973145 987.218628,769.872192 977.969055,793.747009 
	C976.891663,796.527832 975.544250,799.220520 974.129700,801.850708 
	C971.255310,807.195251 966.774231,810.480957 960.709290,811.061646 
	C954.945007,811.613464 949.139526,811.734802 943.017456,812.063477 
	C943.017456,808.180115 943.017456,804.912964 943.017456,800.988770 
	C948.428528,800.988770 953.860474,801.197510 959.257324,800.854065 
	C960.760376,800.758423 962.811584,799.350586 963.482422,797.988647 
	C965.378784,794.138245 966.689758,789.999451 967.683716,787.404358 
	C965.315857,784.240051 962.999573,782.201172 962.005615,779.647644 
	C954.769348,761.055664 947.797485,742.360718 940.747986,723.696167 
	C940.169861,722.165527 939.635376,720.618469 938.778748,718.241394 
	C943.148315,718.241394 947.071411,717.929382 950.889099,718.426636 
	C952.072815,718.580872 953.357300,720.784241 953.938965,722.301208 
	C959.891235,737.825317 965.681274,753.411621 971.673889,768.919800 
	C971.885437,769.467285 971.063171,773.703369 974.346741,770.222534 
z"/>
<path fill="#68696B" opacity="1.000000" stroke="none" 
	d="
M759.525757,751.999878 
	C759.526001,740.549866 759.526001,729.599792 759.526001,718.478333 
	C764.273926,718.478333 768.357727,718.478333 772.822510,718.478333 
	C772.822510,722.816162 772.822510,726.908264 772.822510,732.566223 
	C774.081055,730.512329 774.547546,729.764893 775.000671,729.009521 
	C782.288879,716.860596 797.559631,712.509460 810.220032,718.965393 
	C817.397644,722.625427 820.523315,729.183105 820.758545,736.532471 
	C821.268738,752.477478 820.915771,768.450012 820.915771,784.707886 
	C816.763977,784.707886 812.685608,784.707886 807.992920,784.707886 
	C807.992920,776.583313 807.998657,768.480652 807.990967,760.377991 
	C807.985535,754.713074 808.082825,749.044678 807.918945,743.384033 
	C807.642456,733.829468 804.244385,729.018372 797.133362,727.737122 
	C787.520691,726.005127 779.166870,729.715759 776.177002,738.032227 
	C774.353394,743.104614 773.387024,748.680359 773.137024,754.081055 
	C772.669250,764.185608 773.002441,774.327271 773.002441,784.727051 
	C768.463989,784.727051 764.366394,784.727051 759.525452,784.727051 
	C759.525452,774.005737 759.525452,763.252869 759.525757,751.999878 
z"/>
<path fill="#696A6C" opacity="1.000000" stroke="none" 
	d="
M1107.755371,729.784180 
	C1118.941162,713.099548 1143.771362,713.481873 1156.048096,721.511292 
	C1163.587646,726.442322 1167.008545,733.659973 1167.641846,742.875366 
	C1163.576172,742.875366 1159.680908,742.875366 1155.573730,742.875366 
	C1155.456055,742.661987 1155.136353,742.273560 1155.013062,741.830444 
	C1151.898193,730.647339 1146.022217,726.464050 1134.175903,727.022095 
	C1123.818481,727.510010 1117.044800,733.230408 1116.001465,743.950012 
	C1115.354370,750.597595 1115.688843,757.607056 1117.108643,764.121521 
	C1118.863770,772.174988 1125.144287,775.876831 1134.444702,776.244263 
	C1144.394531,776.637268 1151.667725,773.359802 1153.850220,765.613708 
	C1155.586548,759.451233 1158.803467,758.335632 1164.123047,759.128357 
	C1165.249023,759.296204 1166.421387,759.152832 1167.539062,759.152832 
	C1168.934448,768.078369 1162.946777,778.317566 1153.723633,783.043152 
	C1139.911621,790.119873 1121.832275,788.043579 1111.740967,778.221741 
	C1101.097290,767.862366 1098.362061,748.104187 1105.576538,733.546326 
	C1106.165649,732.357666 1106.893555,731.237732 1107.755371,729.784180 
z"/>
<path fill="#6A6B6D" opacity="1.000000" stroke="none" 
	d="
M1045.021606,718.202393 
	C1049.993286,718.202454 1054.469482,718.202454 1059.331299,718.202454 
	C1059.331299,721.746338 1059.331299,724.946777 1059.331299,728.711792 
	C1052.423950,728.711792 1045.674316,728.711792 1038.609253,728.711792 
	C1038.609253,744.004211 1038.609253,758.746155 1038.609253,773.968750 
	C1044.867432,773.968750 1051.138428,773.968750 1057.842407,773.968750 
	C1057.842407,777.803101 1057.842407,781.171753 1057.842407,784.730103 
	C1051.597046,784.730103 1045.259521,785.263062 1039.047852,784.605225 
	C1029.729858,783.618347 1025.311768,778.458008 1025.086182,768.836060 
	C1024.820679,757.515381 1024.979858,746.184692 1024.956177,734.858337 
	C1024.952393,733.053345 1024.955688,731.248291 1024.955688,728.905701 
	C1020.716858,728.905701 1016.811218,728.905701 1012.722351,728.905701 
	C1011.622864,724.377808 1011.443787,720.869324 1016.813110,720.056946 
	C1024.021973,718.966309 1028.368408,714.866638 1029.758423,707.752136 
	C1030.654175,703.167847 1033.521362,702.438660 1038.058472,703.574341 
	C1038.058472,708.117615 1038.058472,712.839905 1038.058472,718.202271 
	C1040.617310,718.202271 1042.571655,718.202271 1045.021606,718.202393 
z"/>
<path fill="#67686A" opacity="1.000000" stroke="none" 
	d="
M925.963135,710.000916 
	C925.963135,735.099792 925.963135,759.698975 925.963135,784.649536 
	C921.501282,784.649536 917.306580,784.649536 912.932556,784.649536 
	C912.932556,753.751526 912.932556,723.062012 912.932556,692.073975 
	C917.246033,692.073975 921.312561,692.073975 925.963135,692.073975 
	C925.963135,697.957397 925.963135,703.729309 925.963135,710.000916 
z"/>
<path fill="#58AFFF" opacity="1.000000" stroke="none" 
	d="
M807.839966,519.060181 
	C811.289673,508.646851 821.088196,503.214569 830.618896,506.086182 
	C839.893494,508.880585 845.668518,518.872559 843.280945,527.994019 
	C840.760071,537.624756 830.781860,543.807251 821.453918,541.517944 
	C811.448853,539.062500 805.653687,529.731140 807.839966,519.060181 
z"/>
<path fill="#58AFFF" opacity="1.000000" stroke="none" 
	d="
M809.216431,475.654968 
	C822.036255,486.473846 817.226929,503.502441 803.230469,507.869202 
	C795.111694,510.402161 787.630676,507.108826 782.749329,499.507294 
	C778.636902,493.103119 779.270813,484.331482 784.258301,478.629303 
	C789.916992,472.159668 798.316467,470.208160 805.947205,473.639587 
	C806.997437,474.111816 807.943848,474.815002 809.216431,475.654968 
z"/>
<path fill="#58AFFF" opacity="1.000000" stroke="none" 
	d="
M835.005920,552.218506 
	C839.057068,541.915283 847.372559,537.118530 857.059509,539.139954 
	C864.398499,540.671509 871.017883,548.885010 870.963318,556.576233 
	C870.908752,564.272522 867.273010,570.058838 860.505981,573.382507 
	C854.303040,576.429199 847.720337,576.254761 842.161011,571.854126 
	C836.070923,567.033386 832.798096,560.729248 835.005920,552.218506 
z"/>
<path fill="#67686A" opacity="1.000000" stroke="none" 
	d="
M1086.099365,734.003052 
	C1086.099365,751.105835 1086.099365,767.709473 1086.099365,784.656860 
	C1081.782104,784.656860 1077.716431,784.656860 1073.272949,784.656860 
	C1073.272949,762.782898 1073.272949,740.801270 1073.272949,718.518494 
	C1077.406128,718.518494 1081.462280,718.518494 1086.099365,718.518494 
	C1086.099365,723.637512 1086.099365,728.570740 1086.099365,734.003052 
z"/>
<path fill="#67C419" opacity="1.000000" stroke="none" 
	d="
M880.789246,510.852753 
	C892.789734,516.418762 904.471985,522.166077 916.505737,528.007935 
	C908.712952,534.841003 900.568787,541.579468 892.025513,548.648071 
	C884.274841,539.112183 876.786926,529.899536 868.993652,520.311279 
	C872.845215,517.197998 876.658142,514.116028 880.789246,510.852753 
z"/>
<path fill="#EF9629" opacity="1.000000" stroke="none" 
	d="
M831.837891,439.889160 
	C837.090942,450.922760 842.022888,462.125427 847.036804,473.676331 
	C844.084045,476.552795 841.049377,479.081085 837.701477,481.870270 
	C829.961487,472.441376 822.520996,463.377380 814.689941,453.837524 
	C820.376343,449.181000 825.946533,444.619598 831.837891,439.889160 
z"/>
<path fill="#6A6B6D" opacity="1.000000" stroke="none" 
	d="
M1087.965698,701.086182 
	C1087.965698,703.673462 1087.965698,705.798584 1087.965698,708.144409 
	C1082.259766,708.144409 1076.994019,708.144409 1071.380371,708.144409 
	C1071.380371,704.341675 1071.380371,700.628479 1071.380371,696.562561 
	C1076.598022,696.562561 1081.837524,696.562561 1087.621826,696.562561 
	C1087.727661,697.813538 1087.846680,699.218750 1087.965698,701.086182 
z"/>
<path fill="#FEFEFE" opacity="1.000000" stroke="none" 
	d="
M857.081299,419.035675 
	C853.050110,387.326782 862.557434,359.859650 884.889038,337.521545 
	C926.580200,295.818481 992.945068,299.135803 1030.909302,344.113098 
	C1062.640869,381.706421 1060.569946,439.688934 1026.385498,475.041260 
	C1005.898987,496.227448 980.872070,506.121826 951.612427,505.863098 
	C949.872986,505.847717 948.136108,505.542877 945.264648,505.261780 
	C972.785706,482.857056 999.359314,461.223572 1026.311401,439.282043 
	C1018.681030,429.847687 1011.175842,420.568146 1003.352722,410.895477 
	C995.574158,417.079742 987.901978,423.147095 980.265747,429.259186 
	C972.018799,435.860046 963.767761,442.456818 955.587891,449.140350 
	C947.631592,455.641327 939.770447,462.258698 931.854065,468.808685 
	C923.817261,475.458252 915.738770,482.057770 907.731384,488.742462 
	C904.843872,491.153015 902.101135,491.534576 899.246216,488.141754 
	C908.392090,479.928528 917.525940,472.280792 926.753052,464.747131 
	C949.710449,446.003082 972.698425,427.296387 995.712158,408.621643 
	C997.925659,406.825500 998.619995,405.195435 996.526184,402.833832 
	C994.553528,400.608948 992.814453,398.178558 990.930542,395.872986 
	C986.051086,389.901764 981.148315,383.949585 976.068481,377.762665 
	C963.435181,388.201202 951.263794,398.401642 938.936523,408.410095 
	C920.428284,423.436890 901.749207,438.253937 883.294006,453.344971 
	C879.810547,456.193390 877.032654,459.904633 873.929199,463.217712 
	C872.348877,461.023376 870.768616,458.829041 869.455261,456.159698 
	C878.586121,448.485291 887.452576,441.289062 896.313293,434.085785 
	C913.917236,419.774689 931.525818,405.469269 949.116577,391.141998 
	C956.666199,384.992981 964.176208,378.795349 971.948242,372.419678 
	C964.304749,362.978638 956.900757,353.833466 949.201843,344.324005 
	C918.256226,369.421600 887.668762,394.228638 857.081299,419.035675 
z"/>
<path fill="#FBFBF9" opacity="1.000000" stroke="none" 
	d="
M874.017822,463.537903 
	C877.032654,459.904633 879.810547,456.193390 883.294006,453.344971 
	C901.749207,438.253937 920.428284,423.436890 938.936523,408.410095 
	C951.263794,398.401642 963.435181,388.201202 976.068481,377.762665 
	C981.148315,383.949585 986.051086,389.901764 990.930542,395.872986 
	C992.814453,398.178558 994.553528,400.608948 996.526184,402.833832 
	C998.619995,405.195435 997.925659,406.825500 995.712158,408.621643 
	C972.698425,427.296387 949.710449,446.003082 926.753052,464.747131 
	C917.525940,472.280792 908.392090,479.928528 899.067322,487.839569 
	C888.953125,481.786682 880.853455,473.513062 874.017822,463.537903 
z"/>
<path fill="#EF9629" opacity="1.000000" stroke="none" 
	d="
M857.044556,419.454590 
	C887.668762,394.228638 918.256226,369.421600 949.201843,344.324005 
	C956.900757,353.833466 964.304749,362.978638 971.948242,372.419678 
	C964.176208,378.795349 956.666199,384.992981 949.116577,391.141998 
	C931.525818,405.469269 913.917236,419.774689 896.313293,434.085785 
	C887.452576,441.289062 878.586121,448.485291 869.426392,455.821594 
	C862.770325,444.709351 858.479919,432.764862 857.044556,419.454590 
z"/>
<path fill="#FDFDFD" opacity="1.000000" stroke="none" 
	d="
M836.056702,657.783936 
	C833.407471,668.012390 826.900818,672.911560 816.884827,673.168884 
	C810.945862,673.321533 804.999634,673.196838 798.685059,673.196838 
	C798.685059,656.221008 798.685059,639.383301 798.685059,622.375549 
	C806.015320,622.375549 813.352234,621.635437 820.475220,622.554199 
	C830.412048,623.835815 835.718994,630.103455 836.743896,641.026794 
	C837.248779,646.407898 836.367737,651.919067 836.056702,657.783936 
z"/>
<path fill="#FBFBF9" opacity="1.000000" stroke="none" 
	d="
M916.046204,657.715332 
	C912.414978,657.715210 909.272766,657.715210 905.186401,657.715210 
	C909.496399,645.101624 913.628540,633.008667 918.224426,619.558411 
	C922.801636,632.842896 926.937805,644.847412 931.371521,657.715515 
	C925.988159,657.715515 921.261658,657.715515 916.046204,657.715332 
z"/>
<path fill="#FDFDFD" opacity="1.000000" stroke="none" 
	d="
M1227.185547,750.775696 
	C1226.463623,755.565002 1226.384033,760.198669 1224.830444,764.269836 
	C1221.333862,773.432007 1211.558472,778.176331 1202.050659,775.935364 
	C1198.230347,775.034973 1195.424194,772.894165 1194.791260,768.704224 
	C1194.117188,764.241394 1194.913086,760.151917 1199.317505,758.112366 
	C1202.887817,756.458923 1206.814697,755.568909 1210.595581,754.378540 
	C1215.639893,752.790405 1220.689697,751.217590 1225.760254,749.716736 
	C1226.130127,749.607239 1226.688110,750.133789 1227.185547,750.775696 
z"/>
<path fill="#FDFDFD" opacity="1.000000" stroke="none" 
	d="
M729.715088,755.623535 
	C726.892761,770.375793 719.549744,776.969727 707.157227,776.263855 
	C701.557739,775.944824 697.856323,773.054138 697.083557,768.396545 
	C696.225098,763.222534 698.482727,759.129089 703.824524,757.048462 
	C707.049683,755.792297 710.500671,755.116821 713.848572,754.174622 
	C719.073853,752.704163 724.297729,751.228699 729.756836,749.689270 
	C729.756836,751.362244 729.756836,753.282288 729.715088,755.623535 
z"/>
<path fill="#FDFDFD" opacity="1.000000" stroke="none" 
	d="
M850.856018,770.781006 
	C848.892822,762.547424 851.402344,758.322388 859.503784,756.048828 
	C867.128845,753.908997 874.809570,751.968018 882.426697,749.949890 
	C884.999268,764.673828 875.166443,776.813843 860.590820,776.295898 
	C856.540710,776.151917 853.086792,774.945251 850.856018,770.781006 
z"/>
</svg>