<?xml version="1.0" standalone="no"?>
<!DOCTYPE svg PUBLIC "-//W3C//DTD SVG 20010904//EN"
 "http://www.w3.org/TR/2001/REC-SVG-20010904/DTD/svg10.dtd">
<svg version="1.0" xmlns="http://www.w3.org/2000/svg"
 width="570.000000pt" height="291.000000pt" viewBox="0 0 570.000000 291.000000"
 preserveAspectRatio="xMidYMid meet">

<g transform="translate(0.000000,291.000000) scale(0.100000,-0.100000)"
fill="#000000" stroke="none">
<path d="M2330 2524 c-211 -55 -392 -235 -443 -439 -25 -99 -28 -165 -13 -260
22 -146 82 -255 201 -363 75 -69 132 -101 228 -129 178 -51 404 -16 535 84
l34 26 232 -232 c202 -201 235 -231 262 -231 38 0 64 27 64 65 0 24 -37 66
-230 260 l-231 232 35 51 c72 107 101 222 93 371 -6 130 -30 204 -99 307 -119
178 -302 275 -517 273 -53 0 -121 -7 -151 -15z m276 -128 c212 -56 364 -254
364 -470 0 -212 -141 -405 -341 -467 -68 -21 -186 -25 -259 -8 -239 55 -406
298 -370 539 35 242 236 419 475 420 44 0 103 -6 131 -14z"/>
<path d="M700 770 l0 -200 25 0 c24 0 25 2 25 73 0 127 27 177 96 177 54 0 64
-23 64 -143 l0 -107 26 0 26 0 -4 126 c-3 118 -4 127 -27 145 -38 31 -103 26
-146 -12 l-35 -31 0 86 c0 85 0 86 -25 86 l-25 0 0 -200z"/>
<path d="M2890 770 l0 -200 30 0 30 0 0 90 c0 126 19 160 90 160 52 0 60 -20
60 -141 l0 -109 30 0 30 0 0 93 c0 155 -23 197 -108 197 -35 0 -49 -6 -73 -29
l-29 -29 0 84 0 84 -30 0 -30 0 0 -200z"/>
<path d="M3590 765 l0 -205 30 0 30 0 0 205 0 205 -30 0 -30 0 0 -205z"/>
<path d="M310 930 c0 -17 8 -19 68 -22 l67 -3 3 -167 2 -168 25 0 25 0 0 170
0 170 65 0 c58 0 65 2 65 20 0 19 -7 20 -160 20 -152 0 -160 -1 -160 -20z"/>
<path d="M1520 761 l0 -191 30 0 30 0 0 75 0 75 70 0 c39 0 86 6 105 14 69 29
85 130 31 185 -25 25 -33 26 -146 29 l-120 4 0 -191z m226 124 c15 -20 19 -73
6 -91 -15 -23 -52 -34 -111 -34 l-61 0 0 76 0 76 76 -4 c60 -3 79 -7 90 -23z"/>
<path d="M4440 925 c0 -22 4 -25 35 -25 31 0 35 3 35 25 0 22 -4 25 -35 25
-31 0 -35 -3 -35 -25z"/>
<path d="M4929 891 c-7 -19 -21 -33 -40 -40 -35 -12 -38 -31 -5 -31 24 0 24
-1 28 -111 4 -128 10 -139 90 -139 41 0 48 3 48 20 0 17 -7 20 -45 20 l-46 0
3 103 3 102 48 3 c32 2 47 8 47 17 0 9 -15 15 -47 17 -46 3 -48 4 -51 36 -4
40 -20 41 -33 3z"/>
<path d="M1094 841 c-34 -21 -64 -83 -64 -132 0 -39 22 -91 50 -117 29 -27
101 -38 150 -23 35 10 80 51 80 72 0 18 -40 8 -64 -16 -19 -19 -36 -25 -69
-25 -49 0 -81 25 -92 73 l-7 27 116 0 116 0 0 30 c0 39 -22 82 -56 109 -35 28
-116 29 -160 2z m125 -26 c26 -13 40 -39 41 -72 0 -16 -165 -18 -175 -3 -9 15
24 70 48 80 32 13 55 12 86 -5z"/>
<path d="M1906 839 c-20 -16 -26 -29 -26 -59 0 -50 31 -75 105 -85 75 -9 98
-32 75 -76 -21 -38 -140 -16 -140 27 0 8 -10 14 -25 14 -28 0 -30 -8 -14 -43
17 -37 54 -52 127 -52 58 0 66 3 88 28 53 62 17 129 -77 142 -70 9 -89 20 -89
51 0 46 96 57 123 13 13 -21 57 -26 57 -6 -1 17 -21 42 -47 55 -37 20 -127 15
-157 -9z"/>
<path d="M2254 850 c-11 -4 -33 -23 -48 -41 -26 -31 -28 -38 -24 -107 3 -68 6
-76 35 -103 56 -49 146 -51 203 -3 16 14 30 32 30 40 0 23 -41 16 -62 -11 -43
-55 -158 -18 -158 50 l0 25 115 0 116 0 -7 38 c-10 55 -31 90 -64 107 -31 16
-102 19 -136 5z m101 -30 c25 -9 58 -66 49 -82 -3 -5 -43 -8 -90 -8 -81 0 -84
1 -84 23 1 28 20 54 51 66 32 13 43 13 74 1z"/>
<path d="M2611 834 c-30 -25 -31 -25 -31 -5 0 16 -6 21 -25 21 l-25 0 0 -200
0 -200 25 0 c25 0 25 1 25 80 l0 79 36 -24 c42 -28 79 -31 129 -11 43 18 64
51 72 113 12 103 -39 173 -127 173 -38 0 -55 -6 -79 -26z m119 -24 c26 -14 43
-73 35 -125 -12 -85 -98 -114 -157 -55 -29 29 -30 34 -26 92 4 48 9 65 27 79
25 21 90 25 121 9z"/>
<path d="M3305 851 c-87 -38 -107 -180 -36 -252 53 -52 152 -50 207 5 57 57
55 163 -6 221 -25 24 -40 29 -87 32 -32 1 -67 -1 -78 -6z m134 -55 c28 -30 33
-122 8 -160 -29 -44 -122 -46 -152 -3 -9 13 -15 44 -15 80 0 48 4 62 25 82 34
35 102 35 134 1z"/>
<path d="M3790 847 c-41 -21 -70 -74 -70 -129 0 -104 44 -152 141 -153 98 0
155 63 145 162 -5 59 -27 98 -67 119 -34 17 -115 18 -149 1z m130 -37 c48 -26
50 -153 3 -190 -47 -37 -122 -20 -144 31 -18 45 -6 129 21 151 24 20 90 24
120 8z"/>
<path d="M4145 850 c-42 -17 -68 -58 -73 -114 -5 -65 18 -120 59 -141 40 -21
108 -19 147 5 l32 20 0 -45 c0 -63 -24 -85 -93 -85 -54 0 -87 19 -87 48 0 7
-11 12 -25 12 -47 0 -25 -63 30 -86 41 -17 120 -18 164 -3 53 19 61 48 61 229
l0 160 -25 0 c-19 0 -25 -5 -25 -21 0 -20 -1 -20 -31 5 -32 27 -91 34 -134 16z
m135 -48 c34 -28 40 -117 10 -154 -18 -24 -29 -28 -70 -28 -74 0 -95 23 -95
100 0 53 3 65 24 81 31 25 101 25 131 1z"/>
<path d="M4612 844 c-32 -22 -43 -57 -31 -93 11 -32 39 -47 112 -57 68 -9 89
-33 67 -75 -21 -38 -140 -16 -140 27 0 8 -10 14 -25 14 -34 0 -33 -33 1 -65
49 -46 167 -45 204 2 49 63 10 127 -85 138 -68 9 -101 34 -85 64 20 38 112 34
126 -4 8 -19 54 -20 54 -1 0 8 -14 26 -31 40 -25 21 -41 26 -88 26 -36 0 -65
-6 -79 -16z"/>
<path d="M5136 839 c-20 -16 -26 -29 -26 -59 0 -50 30 -75 101 -84 67 -9 89
-21 89 -49 0 -34 -19 -47 -67 -47 -42 0 -83 25 -83 50 0 6 -11 10 -25 10 -34
0 -32 -22 4 -62 28 -31 33 -33 99 -33 61 0 74 3 96 24 18 17 26 35 26 58 0 49
-34 79 -101 88 -70 9 -89 20 -89 51 0 46 96 57 123 13 12 -19 57 -27 57 -10 0
43 -48 71 -123 71 -40 0 -61 -6 -81 -21z"/>
<path d="M4450 710 l0 -140 25 0 25 0 0 140 0 140 -25 0 -25 0 0 -140z"/>
</g>
</svg>
